<svg width="25" height="22" viewBox="0 0 25 22" fill="none" xmlns="http://www.w3.org/2000/svg">
<path fill-rule="evenodd" clip-rule="evenodd" d="M17.5567 0C21.2903 0 24.1056 3.04627 24.1056 7.08592V14.7863C24.1056 16.8537 23.3746 18.7216 22.046 20.0469C20.8541 21.2342 19.308 21.8632 17.5747 21.8632H6.52757C4.79757 21.8632 3.25257 21.2353 2.05963 20.0469C0.731016 18.7216 0 16.8537 0 14.7863V7.08592C0 3.04627 2.81531 0 6.54887 0H17.5567ZM17.5567 1.68179H6.54887C3.72908 1.68179 1.68179 3.95444 1.68179 7.08592V14.7863C1.68179 16.4041 2.2379 17.8494 3.24697 18.8551C4.11701 19.724 5.25278 20.1814 6.53093 20.1814H17.5567C17.559 20.1792 17.5679 20.1814 17.5747 20.1814C18.8539 20.1814 19.9886 19.724 20.8586 18.8551C21.8688 17.8494 22.4238 16.4041 22.4238 14.7863V7.08592C22.4238 3.95444 20.3765 1.68179 17.5567 1.68179ZM19.3237 6.87155C19.6163 7.23145 19.5614 7.76066 19.2015 8.05441L14.2189 12.1041C13.5888 12.6042 12.8354 12.8542 12.0831 12.8542C11.333 12.8542 10.5852 12.6064 9.95953 12.1109L4.931 8.05665C4.56885 7.76514 4.51279 7.23482 4.80318 6.87379C5.09581 6.51389 5.62501 6.45671 5.98604 6.7471L11.0101 10.7968C11.6413 11.2969 12.5304 11.2969 13.1661 10.7924L18.1397 6.74934C18.5008 6.45447 19.03 6.51053 19.3237 6.87155Z" fill="white"/>
</svg>
