<svg width="13" height="25" viewBox="0 0 13 25" fill="none" xmlns="http://www.w3.org/2000/svg">
<g clip-path="url(#clip0_288_2011)">
<path d="M10.8563 0C11.2773 0.0326635 11.699 0.0645492 12.1199 0.0987681C12.4107 0.122877 12.7014 0.150096 13 0.176538C13 1.50719 13 2.81528 13 4.15293C12.88 4.15293 12.7693 4.15137 12.6578 4.15293C11.8175 4.16537 10.9764 4.15215 10.1376 4.19726C9.0954 4.25325 8.517 4.80309 8.47023 5.84132C8.42112 6.92932 8.45932 8.02122 8.45932 9.14811C9.91155 9.14811 11.3654 9.14811 12.8527 9.14811C12.6586 10.6522 12.4691 12.1166 12.2766 13.6051C10.9951 13.6051 9.73382 13.6051 8.44918 13.6051C8.44918 17.4151 8.44918 21.1986 8.44918 25C6.90574 25 5.38646 25 3.8438 25C3.8438 21.2118 3.8438 17.4291 3.8438 13.6152C2.55292 13.6152 1.28386 13.6152 0 13.6152C0 12.122 0 10.6592 0 9.16521C1.26594 9.16521 2.53343 9.16521 3.83912 9.16521C3.83912 9.04 3.83912 8.9459 3.83912 8.85102C3.8438 7.6868 3.81495 6.52103 3.86251 5.35837C3.92019 3.95617 4.33489 2.67063 5.32566 1.62306C6.08023 0.827475 7.02033 0.370964 8.08437 0.151652C8.36967 0.0925465 8.65887 0.0505506 8.94573 0C9.5826 0 10.2195 0 10.8563 0Z" fill="white"/>
</g>
<defs>
<clipPath id="clip0_288_2011">
<rect width="13" height="25" fill="white"/>
</clipPath>
</defs>
</svg>
