<svg width="23" height="23" viewBox="0 0 23 23" fill="none" xmlns="http://www.w3.org/2000/svg">
<path d="M22.9973 6.44083C22.998 5.11936 22.998 3.7979 22.998 2.47713C22.9973 0.972657 22.0441 0.000521905 20.5692 0.000521905C16.5084 -0.000173968 12.4477 -0.000173968 8.38772 0.000521905C6.91957 0.000521905 5.9691 0.977528 5.96706 2.48896C5.96571 3.26556 5.96571 4.04215 5.96639 4.81875V6.1089H5.72181C5.37871 6.10959 5.03087 6.1082 4.68574 6.1075C3.91667 6.10611 3.12111 6.10403 2.33913 6.11098C0.964052 6.12351 0.00339694 7.11652 0.00203816 8.52566C-0.000679388 11.845 -0.000679388 14.7837 0.00203816 17.5108C0.00339694 18.8956 0.991906 19.9032 2.35204 19.9067L2.87993 19.9081C3.58241 19.9102 4.30868 19.9129 5.02407 19.9025C5.32776 19.8997 5.53701 20.0027 5.72045 20.2525C6.1308 20.8113 6.55677 21.3722 6.96916 21.915L7.28915 22.3367C7.6139 22.7646 8.03784 22.9998 8.48488 22.9998C8.49235 22.9998 8.49914 22.9998 8.50594 22.9991C8.9652 22.9922 9.3939 22.7389 9.71457 22.2873L9.99787 21.8885C10.3763 21.3569 10.7676 20.8071 11.142 20.2581C11.3118 20.0097 11.5129 19.9025 11.8132 19.9025C11.8186 19.9025 11.8241 19.9032 11.8295 19.9032C12.513 19.9115 13.2087 19.9095 13.8799 19.9081C14.1211 19.9074 14.3623 19.9067 14.6028 19.9067C16.0607 19.906 17.0051 18.938 17.0085 17.4405C17.0105 16.84 17.0098 16.2401 17.0098 15.6396L17.0092 14.6153C17.586 14.5818 18.0337 14.6041 18.4318 14.9938C18.7484 15.3042 19.0894 15.5964 19.4196 15.8797C19.6207 16.0522 19.8293 16.2311 20.029 16.4113C20.648 16.9694 21.309 17.0884 21.9938 16.7648C22.6623 16.4489 23.0014 15.865 23 15.0293C22.9966 12.1665 22.9973 9.25564 22.9973 6.44083ZM15.7258 17.4141C15.7258 18.2073 15.3508 18.5936 14.581 18.5936C14.3113 18.5936 14.0416 18.5943 13.7719 18.5949C13.1203 18.5963 12.4464 18.5977 11.784 18.5908H11.7568C11.0618 18.5908 10.5271 18.8761 10.1215 19.4627C9.79881 19.9296 9.46455 20.4 9.14184 20.8558C9.01208 21.0382 8.883 21.2212 8.75391 21.4035C8.69481 21.487 8.55757 21.6818 8.49167 21.6832H8.49099C8.42645 21.6832 8.28921 21.5009 8.23011 21.423C8.08268 21.2274 7.93457 21.0326 7.78647 20.8377C7.45017 20.3973 7.103 19.9422 6.77418 19.485C6.34005 18.8816 5.77819 18.5873 5.05804 18.5873C5.03562 18.5873 5.01388 18.588 4.99146 18.5887C4.35488 18.604 3.70606 18.5998 3.07831 18.5963C2.84392 18.5949 2.60953 18.5936 2.37446 18.5929C1.69439 18.5915 1.28744 18.1753 1.28744 17.4795C1.28472 14.5157 1.28472 11.5103 1.28744 8.54654C1.28744 7.84301 1.68352 7.43941 2.3731 7.43871C3.84262 7.43732 5.31146 7.43732 6.78097 7.43801H10.2927C11.7222 7.43801 13.1509 7.43732 14.5803 7.43801C15.3616 7.43871 15.7258 7.811 15.7258 8.61126V17.4141ZM21.7132 15.0578C21.7132 15.3223 21.6338 15.4788 21.4537 15.5658C21.2723 15.6535 21.1052 15.6166 20.9109 15.4447C20.7145 15.2708 20.5168 15.0989 20.3185 14.927C19.9726 14.6271 19.616 14.3174 19.2749 14.0022C18.7525 13.5193 18.1763 13.2827 17.5173 13.2827C17.4684 13.2827 17.4195 13.284 17.3699 13.2868C17.2775 13.2917 17.1844 13.2903 17.0771 13.2889C17.0554 13.2889 17.0323 13.2882 17.0092 13.2882L17.0098 11.6808C17.0098 10.6523 17.0105 9.62306 17.0085 8.59386C17.0064 7.0859 16.056 6.11098 14.5865 6.10959C12.9192 6.1082 11.2513 6.1082 9.58345 6.1089H7.27217C7.26809 6.05392 7.2647 6.00591 7.2647 5.95998L7.26402 5.25854C7.26334 4.32746 7.26266 3.36507 7.26538 2.41799C7.26673 1.72907 7.66621 1.31781 8.33337 1.31711C12.6903 1.31503 16.717 1.31503 20.6432 1.31781C21.3015 1.31781 21.7105 1.73255 21.7112 2.39989C21.7132 5.11937 21.7132 7.83814 21.7132 10.5576V15.0578Z" fill="white"/>
<path d="M9.32721 13.2523C8.97324 13.436 8.85028 13.6462 8.88832 14.0024C8.90938 14.2022 8.89919 14.4005 8.88628 14.5682C8.85707 14.9447 8.59415 15.2091 8.2463 15.2112H8.24222C7.89574 15.2112 7.63145 14.9502 7.60088 14.5745C7.59137 14.461 7.59341 14.3504 7.59613 14.2432C7.59681 14.1994 7.59816 14.1562 7.59816 14.1145C7.57982 13.6942 7.59748 13.2495 7.84478 12.8376C8.06626 12.4687 8.39305 12.2635 8.71236 12.0958C9.07991 11.9037 9.26606 11.5196 9.21171 11.0686C9.16415 10.6755 8.86251 10.3429 8.46167 10.2413C8.07034 10.1417 7.65795 10.3018 7.45957 10.6302C7.35087 10.8098 7.30059 11.0429 7.26526 11.2475C7.21771 11.521 7.05941 11.7402 6.84133 11.8327C6.64838 11.9155 6.43233 11.8877 6.24822 11.7569C6.05256 11.617 5.9588 11.4034 5.97103 11.1208C6.01791 10.0151 6.8522 9.06732 7.91136 8.91631C9.00246 8.76044 10.0474 9.41873 10.3959 10.4806C10.7505 11.5606 10.2906 12.7527 9.32721 13.2523Z" fill="white"/>
<path d="M9.15892 16.4992C9.15892 17.0113 8.75128 17.4323 8.25125 17.4386H8.24106C8.00599 17.4386 7.77296 17.3377 7.6004 17.1609C7.42444 16.98 7.32457 16.7337 7.32796 16.4845C7.33544 15.9696 7.73696 15.5674 8.24446 15.5674H8.24921C8.49991 15.5688 8.7275 15.6739 8.89192 15.8429C9.05701 16.0113 9.15892 16.2438 9.15892 16.4992Z" fill="white"/>
</svg>
