<svg width="25" height="26" viewBox="0 0 25 26" fill="none" xmlns="http://www.w3.org/2000/svg">
<path d="M12.5021 26.0003C10.425 25.9199 8.36329 25.9199 6.31608 25.743C2.9018 25.4475 0.483377 22.9011 0.152273 19.3747C0.0660842 18.454 0.000375562 17.5262 0.00122892 16.601C0.00464236 13.5416 0.0293898 10.4822 0.0737644 7.42285C0.0908316 6.26773 0.310145 5.13914 0.790586 4.08927C1.88459 1.69588 3.78332 0.374476 6.26744 0.188736C8.98027 -0.0138082 11.711 0.00122785 14.4341 0.00122785C16.0333 0.00122785 17.6504 0.029531 19.2283 0.264801C22.3695 0.732688 24.5251 3.19241 24.8451 6.4915C24.9372 7.44142 25.0021 8.39931 25.0012 9.35277C24.9995 12.383 24.9739 15.4132 24.9304 18.4425C24.9133 19.6118 24.6983 20.7554 24.2102 21.8194C23.1127 24.2102 21.2183 25.4935 18.735 25.7323C16.6605 25.9322 14.5681 25.919 12.5021 26.0003ZM2.21399 12.9579C2.2157 14.6711 2.25495 16.3835 2.3181 18.0931C2.33773 18.6141 2.35479 19.1244 2.45634 19.6366C2.50498 19.8824 2.56728 20.1257 2.64749 20.3627C2.70979 20.5476 2.9419 20.881 2.9419 21.0632C3.75686 22.6438 5.12394 23.3522 6.77007 23.4504C10.5684 23.6777 14.3718 23.6804 18.1701 23.4566C20.8146 23.3009 22.5453 21.5753 22.6152 18.8379C22.7151 14.9161 22.7151 10.9873 22.6144 7.06552C22.5444 4.32542 20.8206 2.54498 18.1641 2.47156C14.3803 2.3672 10.5906 2.36896 6.80677 2.47333C4.18866 2.54498 2.52888 4.33957 2.37101 7.05137C2.25836 9.01579 2.21143 10.9864 2.21399 12.9579Z" fill="white"/>
<path d="M18.9241 12.9509C18.9284 16.6418 16.0406 19.6287 12.4829 19.6145C8.93297 19.6004 6.07849 16.6356 6.07422 12.9606C6.07081 9.26884 8.95687 6.28463 12.5162 6.2979C16.0688 6.31116 18.9198 9.27238 18.9241 12.9509ZM12.4736 17.2804C14.7708 17.2928 16.655 15.3691 16.6712 12.9942C16.6874 10.6106 14.8374 8.65413 12.5469 8.63202C10.2309 8.60991 8.33392 10.5469 8.32709 12.9394C8.32112 15.3186 10.184 17.268 12.4736 17.2804Z" fill="white"/>
<path d="M20.6794 6.04693C20.6717 6.9146 19.9899 7.59299 19.1425 7.57707C18.3225 7.56115 17.6807 6.8695 17.6876 6.0089C17.6952 5.13858 18.3745 4.46019 19.2219 4.47788C20.0403 4.49468 20.688 5.19165 20.6794 6.04693Z" fill="white"/>
</svg>
