<svg width="23" height="23" viewBox="0 0 23 23" fill="none" xmlns="http://www.w3.org/2000/svg">
<path d="M12.9056 23.0001C11.3051 23.0001 9.74498 23.0001 8.15942 23.0001C8.15942 17.8947 8.15942 12.7915 8.15942 7.66803C9.65727 7.66803 11.1589 7.66803 12.698 7.66803C12.698 8.34616 12.698 9.02353 12.698 9.73241C12.7609 9.69641 12.7909 9.68965 12.8022 9.67165C13.803 8.0581 15.3001 7.34322 17.1503 7.28771C18.2073 7.25621 19.2419 7.38448 20.2119 7.84206C21.4676 8.43467 22.1716 9.47361 22.5599 10.7654C22.8695 11.796 22.9767 12.8582 22.9842 13.9257C23.0045 16.8835 22.9962 19.8413 22.9992 22.7991C22.9992 22.8441 22.9925 22.8891 22.988 22.9529C21.4077 22.9529 19.8401 22.9529 18.2283 22.9529C18.2283 22.8501 18.2283 22.7428 18.2283 22.6348C18.2275 20.1263 18.235 17.6179 18.2186 15.1094C18.2148 14.5416 18.1698 13.9662 18.0671 13.4081C17.7777 11.8381 16.7567 11.3047 15.2941 11.4772C13.9627 11.6348 13.2295 12.4142 13.0226 13.8559C12.9468 14.3818 12.9131 14.9174 12.9101 15.4492C12.8989 17.8452 12.9049 20.2411 12.9049 22.6378C12.9056 22.7488 12.9056 22.8598 12.9056 23.0001Z" fill="white"/>
<path d="M0.39502 7.66406C1.98658 7.66406 3.5534 7.66406 5.13596 7.66406C5.13596 12.777 5.13596 17.8727 5.13596 22.9894C3.55714 22.9894 1.98358 22.9894 0.39502 22.9894C0.39502 17.8832 0.39502 12.7868 0.39502 7.66406Z" fill="white"/>
<path d="M5.51685 2.75312C5.5251 4.27815 4.28889 5.54213 2.78054 5.55114C1.26395 5.56014 0.000750015 4.2939 3.40994e-07 2.76362C-0.000749333 1.25884 1.23471 0.0136121 2.74231 0.000109565C4.26265 -0.0133929 5.50861 1.22284 5.51685 2.75312Z" fill="white"/>
</svg>
