<svg width="24" height="28" viewBox="0 0 24 28" fill="none" xmlns="http://www.w3.org/2000/svg">
<path fill-rule="evenodd" clip-rule="evenodd" d="M11.6538 0C18.0797 0 23.3077 5.26754 23.3077 11.7428C23.3077 19.7028 14.188 27.5455 11.6538 27.5455C9.11966 27.5455 0 19.7028 0 11.7428C0 5.26754 5.22799 0 11.6538 0ZM11.6538 2.11888C6.3962 2.11888 2.11888 6.43716 2.11888 11.7428C2.11888 18.4936 10.0633 25.0706 11.6538 25.4209C13.2444 25.0692 21.1888 18.4922 21.1888 11.7428C21.1888 6.43716 16.9115 2.11888 11.6538 2.11888ZM11.6553 7.06294C14.1866 7.06294 16.2462 9.12249 16.2462 11.6553C16.2462 14.1866 14.1866 16.2448 11.6553 16.2448C9.1239 16.2448 7.06435 14.1866 7.06435 11.6553C7.06435 9.12249 9.1239 7.06294 11.6553 7.06294ZM11.6553 9.18182C10.2921 9.18182 9.18323 10.2907 9.18323 11.6553C9.18323 13.0184 10.2921 14.1259 11.6553 14.1259C13.0184 14.1259 14.1273 13.0184 14.1273 11.6553C14.1273 10.2907 13.0184 9.18182 11.6553 9.18182Z" fill="white"/>
</svg>
