<svg width="22" height="25" viewBox="0 0 22 25" fill="none" xmlns="http://www.w3.org/2000/svg">
<path d="M7.61195 24.9997C7.05636 24.918 6.49225 24.873 5.94713 24.7489C2.857 24.0447 0.446801 21.3667 0.0606986 18.2366C-0.453669 14.0627 2.37993 10.2945 6.55704 9.61064C7.36524 9.47804 8.17867 9.4591 9.00192 9.60476C9.00192 10.9738 9.00192 12.3312 9.00192 13.7133C8.78466 13.6728 8.58113 13.6271 8.37499 13.597C6.36203 13.3044 4.44656 14.7101 4.18218 16.6709C3.89817 18.7755 5.3058 20.6273 7.37505 20.9055C9.45739 21.1857 11.5783 19.5711 11.5594 17.1216C11.5365 14.1562 11.56 11.19 11.562 8.22458C11.5633 5.5929 11.562 2.96122 11.562 0.329535C11.562 0.225025 11.562 0.120516 11.562 -0.000976562C12.929 -0.000976562 14.2719 -0.000976562 15.6134 -0.000976562C15.673 0.419021 15.7096 0.839672 15.7941 1.25053C16.3686 4.03897 18.8449 6.12916 21.6923 6.22518C21.9409 6.23367 22.0038 6.29899 22.0011 6.54394C21.9881 7.70073 21.9953 8.85752 21.9953 10.015C21.9953 10.1025 21.9953 10.1894 21.9953 10.2998C19.6355 10.2886 17.5511 9.56688 15.6514 8.16122C15.6514 8.29317 15.6514 8.37873 15.6514 8.46495C15.6599 11.3494 15.6678 14.2332 15.6769 17.1177C15.6822 18.6899 15.2941 20.1537 14.406 21.4568C12.9578 23.5823 10.939 24.7521 8.36649 24.9585C8.27814 24.9657 8.1911 24.986 8.10341 24.9997C7.9385 24.9997 7.7749 24.9997 7.61195 24.9997Z" fill="white"/>
</svg>
